<svg width="22" height="22" viewBox="0 0 22 22" fill="none" xmlns="http://www.w3.org/2000/svg">
<path d="M21.1841 10.8372L12.1279 1.78565L11.5208 1.17862C11.3825 1.04122 11.1955 0.964111 11.0005 0.964111C10.8056 0.964111 10.6185 1.04122 10.4802 1.17862L0.816943 10.8372C0.675219 10.9784 0.563212 11.1465 0.487534 11.3317C0.411856 11.5169 0.37404 11.7153 0.376318 11.9153C0.385693 12.7403 1.07241 13.3989 1.89741 13.3989H2.89351V21.0325H19.1076V13.3989H20.1248C20.5255 13.3989 20.9029 13.2419 21.1865 12.9583C21.3261 12.8191 21.4368 12.6536 21.512 12.4714C21.5872 12.2891 21.6255 12.0938 21.6248 11.8966C21.6248 11.4982 21.4677 11.1208 21.1841 10.8372V10.8372ZM12.313 19.345H9.68804V14.5638H12.313V19.345ZM17.4201 11.7114V19.345H13.813V14.0013C13.813 13.4833 13.3935 13.0638 12.8755 13.0638H9.12554C8.60757 13.0638 8.18804 13.4833 8.18804 14.0013V19.345H4.58101V11.7114H2.33101L11.0029 3.04659L11.5443 3.588L19.6724 11.7114H17.4201Z" fill="#090A0B"/>
</svg>
