<svg width="23" height="16" viewBox="0 0 23 16" fill="none" xmlns="http://www.w3.org/2000/svg">
<rect width="23" height="16" rx="2" fill="#72787F"/>
<path d="M3.72644 11.0207C4.36392 11.7099 4.73368 13.8314 5.00007 15C5.2663 13.8314 5.63602 11.71 6.27337 11.0207C6.94766 10.2922 7.8604 10.0027 9 9.57818C7.38214 9.48984 6.63304 8.84214 6.63304 8.84214C5.28461 8.04731 5.00007 5 5.00007 5C5.00007 5 4.71535 8.04731 3.36707 8.84214C3.36707 8.84214 2.61798 9.48985 1 9.57818C2.13962 10.0027 3.05251 10.2922 3.72644 11.0207Z" fill="white"/>
<path d="M16.704 6.01035C17.1025 6.35496 17.3336 7.41567 17.5 8C17.6665 7.41569 17.8976 6.35499 18.2959 6.01035C18.7173 5.64609 19.2877 5.50134 20 5.2891C18.9888 5.24492 18.5207 4.92108 18.5207 4.92108C17.6779 4.52367 17.5 3 17.5 3C17.5 3 17.3221 4.52367 16.4794 4.92108C16.4794 4.92108 16.0113 5.24493 15 5.2891C15.7123 5.50134 16.2828 5.64609 16.704 6.01035Z" fill="white"/>
<path d="M11.0224 13.4083C11.2615 13.684 11.4001 14.5325 11.5 15C11.5999 14.5325 11.7385 13.684 11.9775 13.4083C12.2304 13.1168 12.5726 13.0011 13 12.8313C12.3933 12.7959 12.1124 12.5368 12.1124 12.5368C11.6067 12.2189 11.5 11 11.5 11C11.5 11 11.3933 12.219 10.8877 12.5368C10.8877 12.5368 10.6068 12.7959 10 12.8313C10.4273 13.001 10.7697 13.1169 11.0224 13.4083Z" fill="white"/>
<path d="M1 1L22 15" stroke="white" stroke-width="0.5" stroke-linecap="round"/>
</svg>
