<svg width="360" height="48" viewBox="0 0 360 48" fill="none" xmlns="http://www.w3.org/2000/svg">
<g clip-path="url(#clip0_1477_1647)">
<path d="M90.3817 17.34C91.3033 17.34 92.0503 16.5923 92.0503 15.67C92.0503 14.7477 91.3033 14 90.3817 14C89.4602 14 88.7131 14.7477 88.7131 15.67C88.7131 16.5923 89.4602 17.34 90.3817 17.34Z" fill="#A671EA"/>
<path d="M17.4757 17.3496V23.0352C17.4757 23.3794 17.9008 23.5404 18.1285 23.2806L22.3717 18.438C22.9783 17.7464 23.8524 17.3496 24.7727 17.3496H27.3425L20.7413 24.8231C20.6203 24.9602 20.6171 25.1641 20.7317 25.3059L27.6721 33.8057H24.9447C24.0833 33.8057 23.2681 33.42 22.722 32.754L18.1381 27.1608C17.9168 26.8899 17.4773 27.0476 17.4773 27.3966V33.8057H15.6001C14.7165 33.8057 14 33.0886 14 32.2042V18.9511C14 18.0667 14.7165 17.3496 15.6001 17.3496H17.4773H17.4757Z" fill="black"/>
<path d="M40.7678 17.3496V18.6881C40.7678 19.5327 40.0831 20.2179 39.2393 20.2179H33.9532C33.7478 20.2179 33.5806 20.3852 33.5806 20.5908V23.3013C33.5806 23.5069 33.7478 23.6742 33.9532 23.6742H40.2981V24.9458C40.2981 25.7888 39.615 26.4724 38.7728 26.4724H33.9532C33.7478 26.4724 33.5806 26.6397 33.5806 26.8453V30.5661C33.5806 30.7716 33.7478 30.939 33.9532 30.939H40.7678V32.1182C40.7678 33.0503 40.0131 33.8057 39.0816 33.8057H32.1684C31.1319 33.8057 30.2912 32.9643 30.2912 31.9269V19.2283C30.2912 18.191 31.1319 17.3496 32.1684 17.3496H40.7678Z" fill="black"/>
<path d="M55.4158 17.3496V18.6881C55.4158 19.5327 54.7312 20.2179 53.8873 20.2179H48.6013C48.3959 20.2179 48.2287 20.3852 48.2287 20.5908V23.3013C48.2287 23.5069 48.3959 23.6742 48.6013 23.6742H54.9461V24.9458C54.9461 25.7888 54.2631 26.4724 53.4208 26.4724H48.6013C48.3959 26.4724 48.2287 26.6397 48.2287 26.8453V30.5661C48.2287 30.7716 48.3959 30.939 48.6013 30.939H55.4158V32.1182C55.4158 33.0503 54.6611 33.8057 53.7297 33.8057H46.8165C45.7799 33.8057 44.9393 32.9643 44.9393 31.9269V19.2283C44.9393 18.191 45.7799 17.3496 46.8165 17.3496H55.4158Z" fill="black"/>
<path d="M68.8618 17.3496V18.8348C68.8618 19.6506 68.2011 20.3119 67.3859 20.3119H62.9867C62.7813 20.3119 62.6141 20.4792 62.6141 20.6848V23.6073C62.6141 23.8128 62.7813 23.9802 62.9867 23.9802H68.6278V25.137C68.6278 26.0565 67.8826 26.8022 66.9639 26.8022H62.9867C62.7813 26.8022 62.6141 26.9696 62.6141 27.1751V33.8073H61.0713C60.1064 33.8073 59.3246 33.0249 59.3246 32.0592V19.0977C59.3246 18.132 60.1064 17.3496 61.0713 17.3496H68.8618Z" fill="black"/>
<path d="M74.7465 23.8241H73.0509C72.5955 23.8241 72.2277 23.4544 72.2277 23.0003V21.6601C72.2277 19.1488 74.2625 17.1123 76.7718 17.1123H78.1108C78.5662 17.1123 78.934 17.482 78.934 17.9361V19.6332C78.934 20.089 78.5646 20.4571 78.1108 20.4571H76.7718C76.1094 20.4571 75.5713 20.9941 75.5713 21.6586V22.9987C75.5713 23.4544 75.2019 23.8225 74.7481 23.8225L74.7465 23.8241Z" fill="black"/>
<path d="M88.1209 23.824H86.4252C85.9698 23.824 85.602 23.4543 85.602 23.0002V21.66C85.602 20.9971 85.0655 20.4585 84.4015 20.4585H83.0625C82.6071 20.4585 82.2393 20.0888 82.2393 19.6347V17.9376C82.2393 17.4819 82.6087 17.1138 83.0625 17.1138H84.4015C86.9108 17.1138 88.9456 19.1503 88.9456 21.6616V23.0017C88.9456 23.4575 88.5762 23.8256 88.1225 23.8256L88.1209 23.824Z" fill="#A671EA"/>
<path d="M84.4015 33.9998H83.0625C82.6071 33.9998 82.2393 33.6301 82.2393 33.1759V31.4789C82.2393 31.0231 82.6087 30.655 83.0625 30.655H84.4015C85.0639 30.655 85.602 30.118 85.602 29.4535V28.1134C85.602 27.6576 85.9714 27.2896 86.4252 27.2896H88.1209C88.5762 27.2896 88.944 27.6592 88.944 28.1134V29.4535C88.944 31.9649 86.9092 34.0014 84.3999 34.0014L84.4015 33.9998Z" fill="black"/>
<path d="M78.1092 33.9999H76.7702C74.2609 33.9999 72.2261 31.9634 72.2261 29.4521V28.1119C72.2261 27.6562 72.5955 27.2881 73.0493 27.2881H74.7449C75.2003 27.2881 75.5681 27.6578 75.5681 28.1119V29.4521C75.5681 30.115 76.1047 30.6536 76.7686 30.6536H78.1076C78.563 30.6536 78.9308 31.0232 78.9308 31.4774V33.1745C78.9308 33.6302 78.5614 33.9983 78.1076 33.9983L78.1092 33.9999Z" fill="black"/>
</g>
<defs>
<clipPath id="clip0_1477_1647">
<rect width="78.0488" height="20" fill="white" transform="translate(14 14)"/>
</clipPath>
</defs>
</svg>
