<svg width="20" height="18" viewBox="0 0 20 18" fill="none" xmlns="http://www.w3.org/2000/svg">
<path d="M19.0841 3.48041L14.5232 6.29057L10.1497 0.456973C10.1322 0.433493 10.1093 0.414435 10.0831 0.401309C10.0569 0.388182 10.0279 0.381348 9.99858 0.381348C9.96924 0.381348 9.9403 0.388182 9.91406 0.401309C9.88782 0.414435 9.865 0.433493 9.8474 0.456973L5.47631 6.29057L0.913028 3.48041C0.779434 3.39838 0.605997 3.50854 0.62709 3.66557L2.41772 17.2734C2.4435 17.4585 2.60287 17.6015 2.79272 17.6015H17.2091C17.3966 17.6015 17.5583 17.4609 17.5818 17.2734L19.3724 3.66557C19.3912 3.50854 19.2201 3.39838 19.0841 3.48041ZM16.131 15.9984H3.86615L2.60522 6.40307L5.88178 8.42104L9.99975 2.92729L14.1177 8.42104L17.3943 6.40307L16.131 15.9984ZM9.99975 8.92963C8.54428 8.92963 7.36068 10.1132 7.36068 11.5687C7.36068 13.0242 8.54428 14.2078 9.99975 14.2078C11.4552 14.2078 12.6388 13.0242 12.6388 11.5687C12.6388 10.1132 11.4552 8.92963 9.99975 8.92963ZM9.99975 12.7007C9.37631 12.7007 8.87006 12.1945 8.87006 11.5687C8.87006 10.9453 9.37631 10.4367 9.99975 10.4367C10.6232 10.4367 11.1294 10.9429 11.1294 11.5687C11.1294 12.1921 10.6232 12.7007 9.99975 12.7007Z" fill="#090A0B"/>
</svg>
