<svg width="42" height="42" viewBox="0 0 42 42" fill="none" xmlns="http://www.w3.org/2000/svg">
<path d="M26.1256 18.1686H21.2858V12.6725C21.2858 12.492 21.1381 12.3444 20.9577 12.3444H18.4967C18.3163 12.3444 18.1686 12.492 18.1686 12.6725V18.1686H13.3288C13.1483 18.1686 13.0006 18.3163 13.0006 18.4967V20.9577C13.0006 21.1381 13.1483 21.2858 13.3288 21.2858H18.1686V26.7819C18.1686 26.9623 18.3163 27.11 18.4967 27.11H20.9577C21.1381 27.11 21.2858 26.9623 21.2858 26.7819V21.2858H26.1256C26.3061 21.2858 26.4538 21.1381 26.4538 20.9577V18.4967C26.4538 18.3163 26.3061 18.1686 26.1256 18.1686ZM37.7741 35.5592L31.7858 29.5709C36.7938 23.4637 36.4452 14.4157 30.7194 8.69399C24.6491 2.61958 14.7889 2.61958 8.69399 8.69399C2.61958 14.7889 2.61958 24.6491 8.69399 30.7194C14.4157 36.4452 23.4637 36.7938 29.5709 31.7858L35.5592 37.7741C35.6905 37.8889 35.8997 37.8889 36.0104 37.7741L37.7741 36.0104C37.8889 35.8997 37.8889 35.6905 37.7741 35.5592ZM28.5456 28.5456C23.6729 33.4141 15.7815 33.4141 10.9088 28.5456C6.04028 23.6729 6.04028 15.7815 10.9088 10.9088C15.7815 6.04028 23.6729 6.04028 28.5456 10.9088C33.4141 15.7815 33.4141 23.6729 28.5456 28.5456Z" fill="black"/>
</svg>
