<svg width="42" height="42" viewBox="0 0 42 42" fill="none" xmlns="http://www.w3.org/2000/svg">
<path d="M15.238 39.27C14.9694 39.1566 14.7462 38.957 14.6036 38.7027C14.461 38.4484 14.4072 38.1539 14.4505 37.8656L16.8393 22.3125H10.4999C10.2989 22.3179 10.0994 22.2771 9.9167 22.1931C9.734 22.1092 9.57303 21.9844 9.4462 21.8284C9.31938 21.6724 9.23008 21.4894 9.18521 21.2934C9.14034 21.0974 9.14109 20.8937 9.1874 20.6981L13.1249 3.63561C13.1942 3.34196 13.3625 3.08115 13.6016 2.89708C13.8406 2.71301 14.1358 2.61692 14.4374 2.62498H27.5624C27.7585 2.62431 27.9522 2.66759 28.1294 2.75163C28.3065 2.83566 28.4626 2.95833 28.5861 3.11061C28.7114 3.2646 28.8001 3.44501 28.8456 3.63825C28.8911 3.83149 28.8921 4.03253 28.8486 4.22623L26.578 14.4375H32.8124C33.0584 14.437 33.2996 14.5056 33.5084 14.6356C33.7173 14.7655 33.8854 14.9516 33.9936 15.1725C34.0877 15.3845 34.1239 15.6177 34.0985 15.8482C34.0732 16.0788 33.9872 16.2985 33.8493 16.485L16.7868 38.7975C16.6715 38.9684 16.5175 39.1098 16.3373 39.2101C16.1572 39.3105 15.9559 39.3669 15.7499 39.375C15.5743 39.3717 15.4008 39.3361 15.238 39.27Z" fill="black"/>
</svg>
