<svg width="162" height="164" viewBox="0 0 162 164" fill="none" xmlns="http://www.w3.org/2000/svg">
<path d="M24.6709 65.6815H8.0625C3.60241 65.6815 0 62.0637 0 57.6194V44.505C0 19.929 19.9301 0 44.5074 0H57.6226C62.0827 0 65.685 3.61778 65.685 8.06204V24.6695C65.685 29.1294 62.0671 32.7316 57.6226 32.7316H44.5074C38.02 32.7316 32.749 37.9867 32.749 44.4894V57.6039C32.749 62.0637 29.131 65.6659 24.6865 65.6659L24.6709 65.6815Z" fill="black" fill-opacity="0.2"/>
<path d="M153.843 65.6659H137.235C132.775 65.6659 129.172 62.0481 129.172 57.6038V44.4894C129.172 38.0023 123.917 32.7316 117.414 32.7316H104.299C99.8387 32.7316 96.2363 29.1138 96.2363 24.6695V8.06204C96.2363 3.60219 99.8543 0 104.299 0H117.414C141.991 0 161.921 19.929 161.921 44.505V57.6194C161.921 62.0793 158.303 65.6815 153.859 65.6815L153.843 65.6659Z" fill="black" fill-opacity="0.2"/>
<path d="M117.419 163.424H104.301C99.8396 163.424 96.2363 159.807 96.2363 155.362V138.755C96.2363 134.295 99.8552 130.693 104.301 130.693H117.419C123.908 130.693 129.18 125.438 129.18 118.935V105.821C129.18 101.361 132.799 97.7585 137.245 97.7585H153.857C158.318 97.7585 161.921 101.376 161.921 105.821V118.935C161.921 143.511 141.987 163.44 117.403 163.44L117.419 163.424Z" fill="black" fill-opacity="0.2"/>
<path d="M57.6362 163.44H44.5179C19.9348 163.44 0 143.511 0 118.935V105.821C0 101.361 3.61881 97.7585 8.06437 97.7585H24.6767C29.1379 97.7585 32.7411 101.376 32.7411 105.821V118.935C32.7411 125.422 37.9978 130.693 44.5024 130.693H57.6207C62.0818 130.693 65.685 134.311 65.685 138.755V155.362C65.685 159.822 62.0662 163.424 57.6207 163.424L57.6362 163.44Z" fill="black" fill-opacity="0.2"/>
</svg>
